# xmcd CD database file
#
# Track frame offsets:
#	150
#	26032
#	56187
#	79860
#	100612
#	128195
#	152800
#	184650
#	198417
#	212395
#
# Disc length: 3073 seconds
#
# Revision: 0
# Processed by: cddbd v1.5.2PL0 Copyright (c) Steve Scherf et al.
# Submitted via: CDex 1.70beta2
#
DISCID=820bff0a
DTITLE=Steve Rochinski - Chip Stephens, Joe Hunt, Jim Stinnett, Donna McElroy - Otherwise
DYEAR=2001
DGENRE=Jazz
TTITLE0=God and the devil in the land of the sun
TTITLE1=The thrill of it all
TTITLE2=Swedish pastry
TTITLE3=I let a song go out of my hearth
TTITLE4=summer night
TTITLE5=i' m all smiles
TTITLE6=All the shirts i own
TTITLE7=continuation on an afterthought
TTITLE8=love song
TTITLE9=almost like being in love
EXTD=YEAR: 2001
EXTT0=
EXTT1=
EXTT2=
EXTT3=
EXTT4=
EXTT5=
EXTT6=
EXTT7=
EXTT8=
EXTT9=
PLAYORDER=
